<?xml version="1.0" standalone="no"?>
<!DOCTYPE svg PUBLIC "-//W3C//DTD SVG 20010904//EN"
 "http://www.w3.org/TR/2001/REC-SVG-20010904/DTD/svg10.dtd">
<svg version="1.0" xmlns="http://www.w3.org/2000/svg"
 width="320.000000pt" height="238.000000pt" viewBox="0 0 320.000000 238.000000"
 preserveAspectRatio="xMidYMid meet">

<g transform="translate(0.000000,238.000000) scale(0.100000,-0.100000)"
fill="#000000" stroke="none">
<path d="M1060 2363 c-30 -8 -69 -18 -85 -21 -17 -4 -41 -15 -55 -25 -136 -96 -194 -143 -234 -190 l-48 -55 -41 24 c-49 28 -132 32 -176 9 -46 -23 -98 -92 -111 -145 -16 -67 1 -123 52 -174 22 -23 35 -42 28 -44 -6 -2 -40 -27 -75 -56
-238 -191 -355 -552 -300 -920 48 -316 224 -558 469 -644 74 -26 196 -35 264 -20 28 7 32 5 30 -10 -2 -11 5 -18 20 -20 13 -2 27 -14 32 -27 11 -30 25 -38 50 -30 26 8 26 41 0 80 -26 39 -25 43 5 57 23 11 29 8 69 -31 34 -33 49 -42
65 -36 31 9 26 40 -14 84 -23 25 -33 45 -29 55 8 22 26 20 47 -4 14 -17 21 -18 37 -10 26 14 25 34 -1 71 -20 28 -20 30 -3 99 13 56 15 84 7 140 -10 77 -12 75 52 60 143 -33 417 -30 567 5 35 8 66 15 69 15 3 0 0 -24 -8 -53 -10
-39 -11 -64 -3 -101 10 -47 9 -51 -19 -80 -42 -46 -55 -74 -40 -92 18 -22 37 -17 69 18 25 28 31 30 39 18 8 -11 4 -22 -13 -40 -13 -14 -31 -37 -40 -51 -15 -25 -16 -28 -1 -43 9 -9 20 -16 25 -16 11 0 70 62 70 73 0 14 22 7 56 -21 18
-15 34 -35 34 -44 0 -24 31 -39 54 -26 12 7 32 6 61 -1 92 -23 193 -8 297 45 59 30 177 140 215 200 33 51 48 57 40 14 -5 -23 -3 -30 9 -30 21 0 28 -25 15 -60 -18 -54 18 -90 51 -50 19 23 55 23 49 -1 -9 -32 -5 -52 12 -63 16 -9 23
-6 43 20 19 25 29 29 57 26 22 -2 36 -11 42 -25 14 -30 59 -30 63 -1 2 17 14 25 47 33 53 13 120 63 157 116 81 120 74 340 -14 425 l-26 24 24 48 c37 74 54 154 55 258 0 109 -10 169 -46 277 -119 357 -459 671 -783 724 -58 10 -72 16
-83 37 -22 41 -98 100 -155 122 -110 41 -209 17 -236 -56 -14 -40 -9 -40 -118 6 -100 42 -281 86 -412 101 -89 10 -107 15 -111 31 -4 15 -15 18 -59 17 -29 -1 -78 -8 -108 -16z m360 -113 c201 -35 420 -118 499 -189 19 -17 40 -31 46
-31 16 0 145 -119 145 -133 0 -7 18 -29 40 -49 47 -45 89 -124 121 -228 30 -100 33 -270 5 -380 -46 -181 -160 -354 -305 -458 -57 -41 -70 -41 -30 0 54 56 82 131 83 223 0 67 -4 88 -24 124 -35 63 -68 84 -139 89 -77 6 -142 -17
-203 -69 -68 -58 -83 -95 -83 -204 0 -84 2 -93 30 -135 40 -58 99 -91 168 -93 28 0 63 3 77 7 l25 8 -22 -16 c-27 -20 -86 -42 -176 -66 l-67 -18 30 35 c33 37 35 59 8 76 -13 9 -24 3 -56 -25 -69 -62 -180 -62 -237 0 -20 22 -28 25 -43
16 -31 -20 -26 -49 15 -84 l37 -33 -82 6 c-45 4 -123 16 -174 29 l-93 22 58 8 c71 9 118 36 149 86 33 53 32 195 -1 266 -45 94 -116 146 -200 146 -42 0 -122 -44 -168 -91 -46 -46 -48 -51 -33 -79 8 -14 6 -29 -4 -55 -12 -27 -13 -48 -6
-90 10 -61 13 -69 44 -104 20 -24 20 -24 1 -17 -49 17 -167 93 -227 144 -175 152 -239 301 -224 520 9 123 56 275 98 314 22 21 29 34 25 50 -4 15 6 42 30 82 114 189 251 326 398 398 l60 30 148 -6 c81 -4 197 -15 257 -26z m959 -206
c246 -62 502 -281 629 -538 112 -228 129 -433 49 -600 -41 -83 -94 -141 -179 -196 -56 -37 -192 -90 -202 -79 -2 2 4 40 15 84 24 102 26 311 3 423 -61 306 -221 568 -446 731 -32 23 -58 44 -58 46 0 3 18 23 39 44 21 21 42 53 46 70 8
36 14 37 104 15z"/>
</g>
</svg>
